<svg width="15" height="15" viewBox="0 0 15 15" fill="none" xmlns="http://www.w3.org/2000/svg">
<mask id="path-1-inside-1_2_68" fill="white">
<path fill-rule="evenodd" clip-rule="evenodd" d="M7.6615 14.3969C11.5275 14.3969 14.6615 11.2629 14.6615 7.3969C14.6615 3.5309 11.5275 0.396896 7.6615 0.396896C3.79551 0.396896 0.661499 3.5309 0.661499 7.3969C0.661499 11.2629 3.79551 14.3969 7.6615 14.3969ZM3.33492 6.55201C3.33492 7.30417 3.91176 7.93063 4.66136 7.99256L4.88315 8.01089C5.12865 8.03117 5.37431 8.04876 5.6201 8.06366C5.60645 8.71217 5.57291 9.36037 5.51945 10.0073L5.48728 10.3968C5.42827 11.111 5.99201 11.7232 6.70865 11.7232L6.83656 10.175C6.89314 9.49024 6.92876 8.8042 6.94343 8.11782C7.42215 8.12801 7.90104 8.12801 8.37976 8.11782C8.39443 8.8042 8.43005 9.49024 8.48662 10.175L8.61454 11.7232C9.33118 11.7232 9.89492 11.111 9.83591 10.3968L9.80373 10.0073C9.75028 9.36036 9.71673 8.71216 9.70309 8.06364C9.94881 8.04875 10.1944 8.03116 10.4398 8.01089L10.6616 7.99256C11.4112 7.93063 11.9881 7.30417 11.9881 6.55201C11.2275 6.61485 10.466 6.66108 9.70393 6.69073C9.71808 6.05519 9.75135 5.41998 9.80373 4.78595L9.9455 3.07007C9.19334 3.07007 8.56688 3.64691 8.50495 4.39651L8.48662 4.6183C8.42868 5.3197 8.39271 6.02246 8.37872 6.72554C7.90066 6.73207 7.42253 6.73207 6.94447 6.72554C6.93048 6.02246 6.89451 5.3197 6.83656 4.6183L6.81824 4.39651C6.75631 3.64691 6.12985 3.07007 5.37769 3.07007L5.51945 4.78595C5.57184 5.41998 5.6051 6.0552 5.61926 6.69074C4.85715 6.66109 4.09552 6.61485 3.33492 6.55201Z"/>
</mask>
<path fill-rule="evenodd" clip-rule="evenodd" d="M7.6615 14.3969C11.5275 14.3969 14.6615 11.2629 14.6615 7.3969C14.6615 3.5309 11.5275 0.396896 7.6615 0.396896C3.79551 0.396896 0.661499 3.5309 0.661499 7.3969C0.661499 11.2629 3.79551 14.3969 7.6615 14.3969ZM3.33492 6.55201C3.33492 7.30417 3.91176 7.93063 4.66136 7.99256L4.88315 8.01089C5.12865 8.03117 5.37431 8.04876 5.6201 8.06366C5.60645 8.71217 5.57291 9.36037 5.51945 10.0073L5.48728 10.3968C5.42827 11.111 5.99201 11.7232 6.70865 11.7232L6.83656 10.175C6.89314 9.49024 6.92876 8.8042 6.94343 8.11782C7.42215 8.12801 7.90104 8.12801 8.37976 8.11782C8.39443 8.8042 8.43005 9.49024 8.48662 10.175L8.61454 11.7232C9.33118 11.7232 9.89492 11.111 9.83591 10.3968L9.80373 10.0073C9.75028 9.36036 9.71673 8.71216 9.70309 8.06364C9.94881 8.04875 10.1944 8.03116 10.4398 8.01089L10.6616 7.99256C11.4112 7.93063 11.9881 7.30417 11.9881 6.55201C11.2275 6.61485 10.466 6.66108 9.70393 6.69073C9.71808 6.05519 9.75135 5.41998 9.80373 4.78595L9.9455 3.07007C9.19334 3.07007 8.56688 3.64691 8.50495 4.39651L8.48662 4.6183C8.42868 5.3197 8.39271 6.02246 8.37872 6.72554C7.90066 6.73207 7.42253 6.73207 6.94447 6.72554C6.93048 6.02246 6.89451 5.3197 6.83656 4.6183L6.81824 4.39651C6.75631 3.64691 6.12985 3.07007 5.37769 3.07007L5.51945 4.78595C5.57184 5.41998 5.6051 6.0552 5.61926 6.69074C4.85715 6.66109 4.09552 6.61485 3.33492 6.55201Z" fill="black"/>
<path d="M4.66136 7.99256L4.52107 9.69066L4.66136 7.99256ZM3.33492 6.55201L3.47522 4.85391L1.63104 4.70155V6.55201H3.33492ZM4.88315 8.01089L5.02345 6.31279L4.88315 8.01089ZM5.6201 8.06366L7.32361 8.0995L7.35806 6.46198L5.72318 6.36289L5.6201 8.06366ZM5.51945 10.0073L3.82136 9.86704L3.82136 9.86704L5.51945 10.0073ZM5.48728 10.3968L7.18538 10.5371V10.5371L5.48728 10.3968ZM6.70865 11.7232V13.4271H8.27757L8.40675 11.8635L6.70865 11.7232ZM6.83656 10.175L5.13846 10.0347L6.83656 10.175ZM6.94343 8.11782L6.97969 6.41432L5.27635 6.37807L5.23994 8.0814L6.94343 8.11782ZM8.37976 8.11782L10.0833 8.0814L10.0468 6.37805L8.34349 6.41432L8.37976 8.11782ZM8.48662 10.175L6.78852 10.3153L8.48662 10.175ZM8.61454 11.7232L6.91644 11.8635L7.04562 13.4271H8.61454V11.7232ZM9.83591 10.3968L8.13781 10.5371L8.13781 10.5371L9.83591 10.3968ZM9.80373 10.0073L11.5018 9.86704V9.86704L9.80373 10.0073ZM9.70309 8.06364L9.59999 6.36288L7.96513 6.46198L7.99958 8.09949L9.70309 8.06364ZM10.4398 8.01089L10.5801 9.70899L10.4398 8.01089ZM10.6616 7.99256L10.8019 9.69066L10.6616 7.99256ZM11.9881 6.55201H13.6919V4.70155L11.8478 4.85391L11.9881 6.55201ZM9.70393 6.69073L8.00047 6.65279L7.96014 8.46373L9.77016 8.39332L9.70393 6.69073ZM9.80373 4.78595L11.5018 4.92625V4.92624L9.80373 4.78595ZM9.9455 3.07007L11.6436 3.21037L11.796 1.36619H9.9455V3.07007ZM8.50495 4.39651L6.80685 4.25622L8.50495 4.39651ZM8.48662 4.6183L10.1847 4.7586L8.48662 4.6183ZM8.37872 6.72554L8.40198 8.42927L10.0495 8.40678L10.0823 6.75943L8.37872 6.72554ZM6.94447 6.72554L5.24092 6.75943L5.27369 8.40679L6.92122 8.42927L6.94447 6.72554ZM6.83656 4.6183L5.13846 4.7586V4.7586L6.83656 4.6183ZM6.81824 4.39651L8.51634 4.25622L6.81824 4.39651ZM5.37769 3.07007V1.36619H3.52723L3.67959 3.21037L5.37769 3.07007ZM5.51945 4.78595L3.82136 4.92625H3.82136L5.51945 4.78595ZM5.61926 6.69074L5.55303 8.39333L7.36305 8.46373L7.32272 6.6528L5.61926 6.69074ZM12.9576 7.3969C12.9576 10.3219 10.5865 12.693 7.6615 12.693V16.1008C12.4685 16.1008 16.3654 12.2039 16.3654 7.3969H12.9576ZM7.6615 2.10078C10.5865 2.10078 12.9576 4.47193 12.9576 7.3969H16.3654C16.3654 2.58987 12.4685 -1.30699 7.6615 -1.30699V2.10078ZM2.36538 7.3969C2.36538 4.47193 4.73654 2.10078 7.6615 2.10078V-1.30699C2.85448 -1.30699 -1.04239 2.58987 -1.04239 7.3969H2.36538ZM7.6615 12.693C4.73654 12.693 2.36538 10.3219 2.36538 7.3969H-1.04239C-1.04239 12.2039 2.85448 16.1008 7.6615 16.1008V12.693ZM4.80166 6.29446C4.93568 6.30553 5.03881 6.41754 5.03881 6.55201H1.63104C1.63104 8.19081 2.88784 9.55573 4.52107 9.69066L4.80166 6.29446ZM5.02345 6.31279L4.80166 6.29446L4.52107 9.69066L4.74286 9.70899L5.02345 6.31279ZM5.72318 6.36289C5.48981 6.34875 5.25655 6.33205 5.02345 6.31279L4.74286 9.70899C5.00075 9.73029 5.25882 9.74877 5.51702 9.76442L5.72318 6.36289ZM3.91659 8.02781C3.90368 8.64148 3.87193 9.25484 3.82136 9.86704L7.21755 10.1476C7.27388 9.46589 7.30923 8.78286 7.32361 8.0995L3.91659 8.02781ZM3.82136 9.86704L3.78918 10.2565L7.18538 10.5371L7.21755 10.1476L3.82136 9.86704ZM3.78918 10.2565C3.64813 11.9637 4.99565 13.4271 6.70865 13.4271V10.0193C6.98837 10.0193 7.20841 10.2583 7.18538 10.5371L3.78918 10.2565ZM8.40675 11.8635L8.53466 10.3153L5.13846 10.0347L5.01055 11.5829L8.40675 11.8635ZM8.53466 10.3153C8.59409 9.59595 8.63151 8.87527 8.64693 8.15424L5.23994 8.0814C5.226 8.73312 5.19218 9.38452 5.13846 10.0347L8.53466 10.3153ZM8.34349 6.41432C7.88894 6.424 7.43424 6.424 6.97969 6.41432L6.90717 9.82132C7.41007 9.83202 7.91313 9.83202 8.41603 9.82132L8.34349 6.41432ZM10.1847 10.0347C10.131 9.38452 10.0972 8.73312 10.0833 8.0814L6.67626 8.15423C6.69167 8.87527 6.72909 9.59595 6.78852 10.3153L10.1847 10.0347ZM10.3126 11.5829L10.1847 10.0347L6.78852 10.3153L6.91644 11.8635L10.3126 11.5829ZM8.13781 10.5371C8.11478 10.2583 8.33482 10.0193 8.61454 10.0193V13.4271C10.3275 13.4271 11.6751 11.9637 11.534 10.2565L8.13781 10.5371ZM8.10563 10.1476L8.13781 10.5371L11.534 10.2565L11.5018 9.86704L8.10563 10.1476ZM7.99958 8.09949C8.01396 8.78285 8.04931 9.46589 8.10563 10.1476L11.5018 9.86704C11.4513 9.25484 11.4195 8.64147 11.4066 8.0278L7.99958 8.09949ZM10.2995 6.31279C10.0665 6.33204 9.83331 6.34874 9.59999 6.36288L9.80618 9.76441C10.0643 9.74876 10.3223 9.73029 10.5801 9.70899L10.2995 6.31279ZM10.5213 6.29446L10.2995 6.31279L10.5801 9.70899L10.8019 9.69066L10.5213 6.29446ZM10.2842 6.55201C10.2842 6.41754 10.3873 6.30553 10.5213 6.29446L10.8019 9.69066C12.4351 9.55573 13.6919 8.19081 13.6919 6.55201H10.2842ZM9.77016 8.39332C10.5569 8.36272 11.3432 8.31498 12.1284 8.25011L11.8478 4.85391C11.1119 4.91471 10.375 4.95945 9.6377 4.98813L9.77016 8.39332ZM8.10563 4.64565C8.05044 5.31376 8.01538 5.98311 8.00047 6.65279L11.4074 6.72866C11.4208 6.12728 11.4523 5.5262 11.5018 4.92625L8.10563 4.64565ZM8.2474 2.92978L8.10563 4.64565L11.5018 4.92624L11.6436 3.21037L8.2474 2.92978ZM10.203 4.53681C10.192 4.67083 10.08 4.77396 9.9455 4.77396V1.36619C8.3067 1.36619 6.94178 2.62299 6.80685 4.25622L10.203 4.53681ZM10.1847 4.7586L10.203 4.53681L6.80685 4.25622L6.78852 4.47801L10.1847 4.7586ZM10.0823 6.75943C10.0955 6.09185 10.1297 5.42458 10.1847 4.7586L6.78852 4.47801C6.72765 5.21482 6.68987 5.95307 6.67517 6.69165L10.0823 6.75943ZM6.92122 8.42927C7.41478 8.43601 7.90841 8.436 8.40198 8.42927L8.35546 5.02181C7.8929 5.02813 7.43028 5.02813 6.96772 5.02182L6.92122 8.42927ZM8.64801 6.69166C8.63332 5.95307 8.59554 5.21482 8.53466 4.47801L5.13846 4.7586C5.19349 5.42458 5.22764 6.09185 5.24092 6.75943L8.64801 6.69166ZM8.53466 4.47801L8.51634 4.25622L5.12014 4.53681L5.13846 4.7586L8.53466 4.47801ZM8.51634 4.25622C8.3814 2.62299 7.01649 1.36619 5.37769 1.36619V4.77396C5.24322 4.77396 5.13121 4.67083 5.12014 4.53681L8.51634 4.25622ZM3.67959 3.21037L3.82136 4.92625L7.21755 4.64565L7.07579 2.92978L3.67959 3.21037ZM3.82136 4.92625C3.87092 5.5262 3.9024 6.12728 3.91579 6.72867L7.32272 6.6528C7.30781 5.98312 7.27275 5.31376 7.21755 4.64565L3.82136 4.92625ZM3.19462 8.25011C3.97989 8.31499 4.76621 8.36273 5.55303 8.39333L5.68548 4.98814C4.94808 4.95946 4.21115 4.91471 3.47522 4.85391L3.19462 8.25011Z" fill="black" mask="url(#path-1-inside-1_2_68)"/>
</svg>
